# xmcd CD database file
#
# Track frame offsets:
#	150
#	41156
#	64280
#	86217
#	122228
#	139571
#	172552
#	198783
#	233666
#
# Disc length: 3326 seconds
#
# Revision: 0
# Processed by: cddbd v1.5.2PL0 Copyright (c) Steve Scherf et al.
# Submitted via: CDex 1.51
#
DISCID=730cfc09
DTITLE=Dizzie Gillespie - Impromptu - Kind Of Gillespie CD-4
DYEAR=1954
DGENRE=Jazz
TTITLE0=Impromptu (Gillespie)
TTITLE1=Siboney - Part 1 (Lecuona/Morse)
TTITLE2=Siboney - Part 2 (Lecuona/Morse)
TTITLE3=It's The Talk Of The Town (Livingston/Neiberg/Symes)
TTITLE4=Girl Of My Dreams (Clapp) 
TTITLE5=I Let A Song Go Out Of My Heart (Ellington/Nemo/Mills/Redmond)
TTITLE6=Exactly Like You (McHugh/Fields)
TTITLE7=It Don't Mean A Thing (Ellington/Miles)
TTITLE8=One Alone (Gillespie)
EXTD=YEAR: 1954
EXTT0=
EXTT1=
EXTT2=
EXTT3=
EXTT4=
EXTT5=
EXTT6=
EXTT7=
EXTT8=
PLAYORDER=
